<?xml version="1.0" standalone="no"?>
<!DOCTYPE svg PUBLIC "-//W3C//DTD SVG 1.1//EN" "http://www.w3.org/Graphics/SVG/1.1/DTD/svg11.dtd">
<svg xmlns="http://www.w3.org/2000/svg" width="916" height="1145" viewBox="0 0 916 1145" fill="none">
<path d="M409.5 1011.33C391.74 1009.16 380.61 1005.41 361.81 995.24C356.49 992.36 351.81 990 351.42 990C351.03 990 346.84 987.6 342.11 984.67C332.42 978.67 317.76 970.34 311 967C308.52 965.77 305.83 964.18 305 963.47C303.55 962.22 298.67 959.54 274 946.43C267.67 943.07 247.2 932.62 228.5 923.22C209.8 913.81 190.68 903.79 186 900.95C181.32 898.11 175.48 894.65 173 893.27C170.52 891.88 167.6 889.98 166.5 889.05C165.4 888.11 161.35 885.15 157.5 882.46C145.35 873.98 135.87 865.92 123.46 853.53C96.88 826.99 83.01 804.34 70.96 767.76C65.69 751.77 61.87 734.22 56.53 701.5C54.64 689.95 51.07 670.6 48.59 658.5C44.63 639.17 42.09 629.49 33.76 602C26.55 578.2 23.96 561.37 23.45 535C22.77 500.34 25.88 461.65 30.6 446C35.17 430.82 44.77 414.32 61.41 393C85.54 362.1 83.71 364.89 124.29 297C139.83 271 150.66 256.31 164.49 242.5C179.02 227.99 191.51 218.7 210.5 208.27C229.3 197.94 243.77 192.44 281 181.43C303.62 174.75 306.89 173.45 333 160.7C353.55 150.67 364.4 146.18 380 141.26C402.49 134.17 407.04 133.32 427.5 132.41C452.68 131.29 461.73 133.12 506.5 148.41C530.91 156.75 553.79 163.08 566.29 164.95C599.12 169.87 630.9 176.95 651.97 184.03C681.83 194.06 706.88 207.68 737.5 230.54C769.06 254.11 782.23 272.74 802.48 322.5C816.55 357.07 820.36 365.28 841.67 407C869.05 460.62 883.85 499.61 889.95 534.24C891.69 544.06 892 550.09 892 573.48C892 603.67 891.5 608.69 886.36 629.5C879.94 655.52 878.32 659.4 859.42 694C855.06 701.97 849.61 712.55 847.31 717.5C840.88 731.31 836 742.11 836 742.51C836 742.7 832.92 749.31 829.16 757.18C825.4 765.06 821.51 773.3 820.52 775.5C816.68 784.04 800.76 816.11 794.46 828C778.1 858.87 769.33 872.21 755.48 887.33C728.33 916.96 711.22 927.92 677.08 937.53C637.83 948.58 606.72 960.38 558 982.7C537.58 992.05 502.23 1003.03 476.78 1007.91C459.56 1011.22 423.53 1013.05 409.5 1011.33ZM410.29 989.93C418.89 991.26 452.31 990.41 464.95 988.54C479.29 986.42 500.89 980.97 520.27 974.59C536.87 969.12 546.75 965.11 574 952.76C605.3 938.58 623.55 931.87 669.96 917.48C694.11 910 700.49 907.35 710.78 900.57C724.8 891.34 745.36 869.94 756.41 853.09C767.02 836.89 785.03 802.77 800.53 769.5C806.43 756.85 813.15 742.45 815.48 737.5C817.8 732.55 822.56 722.2 826.05 714.5C829.53 706.8 837.67 690.81 844.12 678.96C857.11 655.11 860.71 646.84 864.93 631.13C874.54 595.34 876.03 567.25 869.93 536.29C862.52 498.63 851.29 469.87 818.46 404.5C798.93 365.62 791.64 349.72 784.33 330.03C779.63 317.39 766.39 290 760.81 281.39C752.95 269.25 744.45 260.43 730.62 250.08C696.25 224.35 675.06 213.17 637.72 201.09C622.56 196.18 610.94 193.59 576.9 187.54C540.11 181 528.27 177.8 485 162.69C459.65 153.83 453 152.51 434.5 152.62C416.83 152.73 405.52 154.77 385.45 161.45C369.23 166.84 358.6 171.37 335 182.91C316.95 191.74 300.22 197.8 263 209.01C224.91 220.47 192.27 241.82 169.14 270.4C159.51 282.29 153.08 292.14 132.79 326C122.08 343.88 110.31 363.14 106.64 368.8C99.92 379.18 98.04 381.71 79.36 405.63C73.72 412.85 66.54 422.97 63.41 428.13C49.76 450.58 47.28 462.99 46.32 513.63C45.52 556.3 47 569.31 55.9 597.74C65.33 627.82 71.62 655.52 79.04 699.5C86.94 746.37 90.63 760.42 101.66 785.61C114.72 815.42 142.28 845.89 177.33 869.25C196.65 882.13 202.38 885.35 238 903.31C279.49 924.24 294.81 932.34 321.5 947.45C351.68 964.54 357.14 967.54 372.09 975.33C387.87 983.55 400.67 988.44 410.29 989.93ZM467.5 966.14C451.64 968.71 422.23 969.49 412.31 967.59C393.7 964.03 384.15 959.55 331 929.47C306.37 915.53 280.73 901.9 250.5 886.68C218.55 870.59 206.44 863.61 188.55 850.96C153.85 826.42 129.58 796.89 116.21 762.97C108.08 742.35 103.99 725.41 98.39 689.19C96.68 678.15 89.79 643.22 87.5 634C85.68 626.68 83.22 617.72 79.39 604.5C69.72 571.09 68.89 564.91 68.89 526C68.88 481.03 70.78 465.67 78.57 447.54C82.91 437.45 88.53 428.89 104.58 407.95C120.73 386.88 127.88 376.12 147.38 343.49C169.04 307.25 170.79 304.46 177.34 295.76C202.77 261.97 234.68 239.7 277.13 226.12C282.29 224.47 288.52 222.62 291 222.01C302.06 219.29 321.61 212.23 334 206.49C341.42 203.04 353.49 197.44 360.82 194.04C376.24 186.88 393.62 180.95 409.99 177.28C419.76 175.08 424 174.68 438 174.64C457.98 174.58 463.59 175.8 499.61 187.96C533.46 199.39 544.22 202.14 580 208.47C598.07 211.67 609.02 214.15 625 218.64C640.68 223.05 646.98 225.49 664.5 233.93C699.22 250.65 732.26 276.34 746.5 297.67C751.25 304.79 761.74 325.96 767.96 341C770.81 347.88 775.4 358.9 778.16 365.5C780.93 372.1 791.51 394.12 801.68 414.44C827.86 466.74 836.66 487.92 844.62 517.89C854.9 556.61 854.53 590.36 843.36 631.83C840.16 643.68 837.68 649.17 822.5 678C815.69 690.92 803.4 716.12 795.19 734C778.82 769.65 772.31 782.94 758.7 808.5C743.33 837.37 735.07 848.87 717.37 866.05C695.55 887.23 684.15 893.2 642 905.5C615.7 913.18 591.17 922.61 555 938.96C523.18 953.33 497.82 961.21 467.5 966.14ZM414 953.37C415.38 953.63 426.17 953.72 438 953.56C462.14 953.23 469.83 952.15 493 945.83C521.04 938.19 532.43 933.95 568.1 917.88C592.78 906.76 591.71 907.19 612 900.31C617.78 898.35 623.4 896.4 624.5 895.98C626.7 895.14 640.81 890.79 651 887.82C680.46 879.22 689.77 873.94 709.03 854.91C722.39 841.72 731.78 829.44 741.86 812C750.15 797.66 770.44 756.03 785.61 722.22C793.53 704.56 802.26 686.93 812.42 668.06C826.25 642.37 828.26 636.98 834.08 610C835.21 604.78 836.52 596.67 836.99 592C838.07 581.43 838.1 556.35 837.04 549C836.01 541.79 833.24 527.42 832.03 523C825.84 500.35 819.93 483.31 813.38 469.23C811.52 465.23 810 461.77 810 461.54C810 461.3 800.43 441.85 788.74 418.31C777.05 394.76 764.62 368.3 761.11 359.5C757.6 350.7 752.77 339.29 750.37 334.14C747.97 328.99 746 324.56 746 324.3C746 322.98 733.13 301.74 729.36 296.82C714.49 277.48 671.73 249.99 635 236.17C617.51 229.59 595.97 224.31 565 219.02C547.51 216.03 535.69 213.49 525.9 210.6C521.28 209.23 513.45 206.92 508.51 205.46C503.56 204.01 498.65 202.35 497.59 201.78C494.1 199.91 476.96 194.05 467.65 191.54C440.5 184.22 411.27 187.42 376.98 201.46C366.24 205.86 357.14 210.04 340.44 218.23C331.32 222.7 320.64 226.66 305 231.36C261.06 244.57 245.54 251.52 223.62 267.83C210.96 277.26 198.53 289.82 188.8 303.04C184.57 308.79 180.22 314.65 179.14 316.05C177.46 318.24 165.03 338.96 158.78 350C155.53 355.73 149.89 365.14 146.33 370.75C131.3 394.45 126.35 401.74 121.29 407.68C111.18 419.55 96.69 440.1 92.51 448.5C86.25 461.12 84.08 470.43 82.99 489.5C81.83 509.78 81.81 539.84 82.96 556C83.82 568.16 85.17 574.88 90.46 593.5C99.17 624.17 99.97 627.3 104.14 647.5C108.7 669.55 111.37 684.32 114.08 702.5C115.15 709.65 116.74 718.65 117.61 722.5C119.14 729.25 126.23 752.4 128.02 756.5C142.71 790.19 159.24 811.33 189.5 835.11C205.63 847.78 218.53 855.24 261 876.45C277.23 884.55 290.95 891.52 291.5 891.94C292.05 892.36 295.88 894.51 300 896.72C313.3 903.86 327.28 911.6 336.39 916.86C341.28 919.69 345.39 922 345.52 922C345.64 922 350.19 924.53 355.62 927.62C384.2 943.86 399.19 950.47 414 953.37Z" fill="#7B701A"/>
<path d="M410.29 989.93C400.67 988.44 387.87 983.55 372.09 975.33C357.14 967.54 351.68 964.54 321.5 947.45C294.81 932.34 279.49 924.24 238 903.31C202.38 885.35 196.65 882.13 177.33 869.25C142.28 845.89 114.72 815.42 101.66 785.61C90.63 760.42 86.94 746.37 79.04 699.5C71.62 655.52 65.33 627.82 55.9 597.74C47 569.31 45.52 556.3 46.32 513.63C47.28 462.99 49.76 450.58 63.41 428.13C66.54 422.97 73.72 412.85 79.36 405.63C98.04 381.71 99.92 379.18 106.64 368.8C110.31 363.14 122.08 343.88 132.79 326C153.08 292.14 159.51 282.29 169.14 270.4C192.27 241.82 224.91 220.47 263 209.01C300.22 197.8 316.95 191.74 335 182.91C358.6 171.37 369.23 166.84 385.45 161.45C405.52 154.77 416.83 152.73 434.5 152.62C453 152.51 459.65 153.83 485 162.69C528.27 177.8 540.11 181 576.9 187.54C610.94 193.59 622.56 196.18 637.72 201.09C675.06 213.17 696.25 224.35 730.62 250.08C744.45 260.43 752.95 269.25 760.81 281.39C766.39 290 779.63 317.39 784.33 330.03C791.64 349.72 798.93 365.62 818.46 404.5C851.29 469.87 862.52 498.63 869.93 536.29C876.03 567.25 874.54 595.34 864.93 631.13C860.71 646.84 857.11 655.11 844.12 678.96C837.67 690.81 829.53 706.8 826.05 714.5C822.56 722.2 817.8 732.55 815.48 737.5C813.15 742.45 806.43 756.85 800.53 769.5C785.03 802.77 767.02 836.89 756.41 853.09C745.36 869.94 724.8 891.34 710.78 900.57C700.49 907.35 694.11 910 669.96 917.48C623.55 931.87 605.3 938.58 574 952.76C546.75 965.11 536.87 969.12 520.27 974.59C500.89 980.97 479.29 986.42 464.95 988.54C452.31 990.41 418.89 991.26 410.29 989.93ZM467.5 966.14C497.82 961.21 523.18 953.33 555 938.96C591.17 922.61 615.7 913.18 642 905.5C684.15 893.2 695.55 887.23 717.37 866.05C735.07 848.87 743.33 837.37 758.7 808.5C772.31 782.94 778.82 769.65 795.19 734C803.4 716.12 815.69 690.92 822.5 678C837.68 649.17 840.16 643.68 843.36 631.83C854.53 590.36 854.9 556.61 844.62 517.89C836.66 487.92 827.86 466.74 801.68 414.44C791.51 394.12 780.93 372.1 778.16 365.5C775.4 358.9 770.81 347.88 767.96 341C761.74 325.96 751.25 304.79 746.5 297.67C732.26 276.34 699.22 250.65 664.5 233.93C646.98 225.49 640.68 223.05 625 218.64C609.02 214.15 598.07 211.67 580 208.47C544.22 202.14 533.46 199.39 499.61 187.96C463.59 175.8 457.98 174.58 438 174.64C424 174.68 419.76 175.08 409.99 177.28C393.62 180.95 376.24 186.88 360.82 194.04C353.49 197.44 341.42 203.04 334 206.49C321.61 212.23 302.06 219.29 291 222.01C288.52 222.62 282.29 224.47 277.13 226.12C234.68 239.7 202.77 261.97 177.34 295.76C170.79 304.46 169.04 307.25 147.38 343.49C127.88 376.12 120.73 386.88 104.58 407.95C88.53 428.89 82.91 437.45 78.57 447.54C70.78 465.67 68.88 481.03 68.89 526C68.89 564.91 69.72 571.09 79.39 604.5C83.22 617.72 85.68 626.68 87.5 634C89.79 643.22 96.68 678.15 98.39 689.19C103.99 725.41 108.08 742.35 116.21 762.97C129.58 796.89 153.85 826.42 188.55 850.96C206.44 863.61 218.55 870.59 250.5 886.68C280.73 901.9 306.37 915.53 331 929.47C384.15 959.55 393.7 964.03 412.31 967.59C422.23 969.49 451.64 968.71 467.5 966.14ZM414 953.37C399.19 950.47 384.2 943.86 355.62 927.62C350.19 924.53 345.64 922 345.52 922C345.39 922 341.28 919.69 336.39 916.86C327.28 911.6 313.3 903.86 300 896.72C295.88 894.51 292.05 892.36 291.5 891.94C290.95 891.52 277.23 884.55 261 876.45C218.53 855.24 205.63 847.78 189.5 835.11C159.24 811.33 142.71 790.19 128.02 756.5C126.23 752.4 119.14 729.25 117.61 722.5C116.74 718.65 115.15 709.65 114.08 702.5C111.37 684.32 108.7 669.55 104.14 647.5C99.97 627.3 99.17 624.17 90.46 593.5C85.17 574.88 83.82 568.16 82.96 556C81.81 539.84 81.83 509.78 82.99 489.5C84.08 470.43 86.25 461.12 92.51 448.5C96.69 440.1 111.18 419.55 121.29 407.68C126.35 401.74 131.3 394.45 146.33 370.75C149.89 365.14 155.53 355.73 158.78 350C165.03 338.96 177.46 318.24 179.14 316.05C180.22 314.65 184.57 308.79 188.8 303.04C198.53 289.82 210.96 277.26 223.62 267.83C245.54 251.52 261.06 244.57 305 231.36C320.64 226.66 331.32 222.7 340.44 218.23C357.14 210.04 366.24 205.86 376.98 201.46C411.27 187.42 440.5 184.22 467.65 191.54C476.96 194.05 494.1 199.91 497.59 201.78C498.65 202.35 503.56 204.01 508.51 205.46C513.45 206.92 521.28 209.23 525.9 210.6C535.69 213.49 547.51 216.03 565 219.02C595.97 224.31 617.51 229.59 635 236.17C671.73 249.99 714.49 277.48 729.36 296.82C733.13 301.74 746 322.98 746 324.3C746 324.56 747.97 328.99 750.37 334.14C752.77 339.29 757.6 350.7 761.11 359.5C764.62 368.3 777.05 394.76 788.74 418.31C800.43 441.85 810 461.3 810 461.54C810 461.77 811.52 465.23 813.38 469.23C819.93 483.31 825.84 500.35 832.03 523C833.24 527.42 836.01 541.79 837.04 549C838.1 556.35 838.07 581.43 836.99 592C836.52 596.67 835.21 604.78 834.08 610C828.26 636.98 826.25 642.37 812.42 668.06C802.26 686.93 793.53 704.56 785.61 722.22C770.44 756.03 750.15 797.66 741.86 812C731.78 829.44 722.39 841.72 709.03 854.91C689.77 873.94 680.46 879.22 651 887.82C640.81 890.79 626.7 895.14 624.5 895.98C623.4 896.4 617.78 898.35 612 900.31C591.71 907.19 592.78 906.76 568.1 917.88C532.43 933.95 521.04 938.19 493 945.83C469.83 952.15 462.14 953.23 438 953.56C426.17 953.72 415.38 953.63 414 953.37Z" fill="#FEFCE7"/>
<path d="M180.832 420.493H216.346L298.402 513.952V455.175C298.402 443.955 297.846 436.477 296.739 432.744C295.628 429.003 292.926 427.128 288.629 427.128H279.5V420.493H318.967V427.128H310.229C308.566 427.128 307.556 427.34 307.208 427.755C306.869 428.175 306.699 429.075 306.699 430.453V550.517C306.699 552.452 306.351 553.419 305.664 553.419C304.837 553.419 304.006 552.867 303.17 551.773L207.828 444.995V519.161C207.828 528.574 208.413 535.289 209.593 539.302C210.768 543.319 212.952 545.325 216.142 545.325H228.817V552.18H186.024V545.325H194.118C196.332 545.325 197.787 545.015 198.479 544.392C199.166 543.773 199.514 542.284 199.514 539.929V451.646C199.514 442.78 198.547 436.477 196.612 432.744C194.678 429.003 190.937 427.128 185.397 427.128H180.832V420.493Z" fill="#807514"/>
<path d="M334.955 420.493H435.896L433.402 437.732C432.982 440.087 432.151 441.262 430.908 441.262C429.797 441.262 428.588 440.155 427.277 437.936C425.962 435.722 424.821 434.199 423.849 433.372C419.005 429.766 408.413 427.959 392.069 427.959H379.19C376.972 427.959 375.618 428.239 375.135 428.79C374.647 429.346 374.405 430.597 374.405 432.54V475.537H391.865C401.965 475.537 408.612 475.019 411.802 473.976C414.992 472.936 416.587 470.408 416.587 466.391V460.571H422.814V496.712H416.587V489.857C416.587 486.816 415.336 484.916 412.837 484.156C410.347 483.388 405.155 483.002 397.261 483.002H374.405V517.702C374.405 529.333 374.923 536.739 375.966 539.929C377.005 543.111 379.742 544.697 384.179 544.697H395.598C406.818 544.697 416.791 543.035 425.512 539.709C427.998 538.75 430.594 536.816 433.3 533.906C436.002 531 437.975 529.545 439.222 529.545C440.601 529.545 441.292 530.237 441.292 531.615C441.292 532.442 441.156 533.342 440.885 534.313L435.693 552.18H338.892V545.529H346.578C348.512 545.529 349.755 545.151 350.311 544.392C350.862 543.637 351.142 542.216 351.142 540.133V454.344C351.142 442.988 350.587 435.611 349.48 432.218C348.381 428.824 345.615 427.128 341.182 427.128H334.955V420.493Z" fill="#807514"/>
<path d="M527.289 420.494L528.12 435.849V437.105C528.12 439.188 527.429 440.227 526.05 440.227C525.766 440.227 525.515 440.193 525.303 440.125C525.1 440.049 524.854 439.973 524.574 439.905C524.302 439.837 524.099 439.769 523.963 439.701C523.827 439.633 523.649 439.464 523.437 439.192C523.233 438.912 523.064 438.7 522.928 438.564C522.792 438.42 522.614 438.174 522.402 437.835C522.198 437.487 522.063 437.241 521.995 437.105C521.927 436.969 521.749 436.66 521.469 436.172C521.197 435.688 520.994 435.374 520.858 435.239C516.285 428.036 508.599 424.43 497.799 424.43C490.32 424.43 484.055 426.615 478.998 430.98C473.942 435.336 471.414 440.494 471.414 446.454C471.414 451.714 473.59 456.253 477.946 460.062C482.311 463.863 489.34 467.914 499.037 472.211C512.747 478.163 522.61 484.085 528.629 489.977C534.657 495.86 537.673 503.648 537.673 513.341C537.673 525.108 532.723 535.179 522.826 543.561C512.925 551.943 500.217 556.134 484.699 556.134C473.908 556.134 462.764 553.915 451.273 549.483L448.558 531.616C448.558 531.344 448.524 531.073 448.456 530.801C448.388 530.521 448.354 530.305 448.354 530.156C448.354 527.806 449.186 526.627 450.849 526.627C451.264 526.627 451.646 526.703 451.986 526.848C452.333 526.983 452.681 527.297 453.021 527.781C453.368 528.256 453.682 528.672 453.954 529.019C454.234 529.372 454.654 530.033 455.209 531.005C455.761 531.968 456.181 532.659 456.465 533.075C462.548 543.043 472.864 548.023 487.414 548.023C496.272 548.023 503.432 545.813 508.896 541.389C514.368 536.956 517.108 531.204 517.108 524.133C517.108 512.506 510.117 503.716 496.136 497.765C495.16 497.349 493.463 496.62 491.045 495.576C488.623 494.537 486.927 493.845 485.955 493.506C484.979 493.158 483.52 492.535 481.577 491.639C479.643 490.736 478.222 490.074 477.319 489.654C476.423 489.239 475.214 488.649 473.687 487.89C472.169 487.135 470.96 486.477 470.056 485.921C469.161 485.37 468.228 484.746 467.257 484.055C466.281 483.355 465.382 482.659 464.559 481.968C456.796 475.045 452.919 467.015 452.919 457.874C452.919 445.826 457.521 435.93 466.731 428.18C475.948 420.421 488.034 416.54 502.991 416.54C511.157 416.54 519.254 417.859 527.289 420.494Z" fill="#807514"/>
<path d="M548.259 420.493H655.869L661.468 437.936C661.884 439.047 662.096 439.879 662.096 440.43C662.096 442.229 661.264 443.128 659.602 443.128C658.49 443.128 657.039 441.953 655.241 439.599C653.442 437.249 651.779 435.586 650.252 434.61C643.465 430.462 631.282 428.243 613.704 427.959V518.329C613.704 529.825 614.217 537.198 615.248 540.455C616.287 543.705 619.023 545.325 623.46 545.325H634.879V552.18H570.69V545.325H585.86C587.938 545.325 589.219 544.914 589.694 544.087C590.178 543.251 590.424 541.312 590.424 538.267V427.959C572.425 428.243 560.102 430.53 553.451 434.814C551.932 435.79 550.312 437.419 548.581 439.701C546.851 441.987 545.43 443.128 544.322 443.128C542.795 443.128 542.032 442.229 542.032 440.43C542.032 439.459 542.176 438.627 542.456 437.936L548.259 420.493Z" fill="#807514"/>
<path d="M665.838 420.493H717.555V427.128H709.665C707.718 427.128 706.467 427.408 705.916 427.959C705.36 428.515 705.084 429.554 705.084 431.081C705.084 431.501 705.118 432.197 705.186 433.168C705.254 434.131 705.288 435.026 705.288 435.849V518.329C705.288 529.961 705.805 537.367 706.849 540.557C707.888 543.739 710.624 545.325 715.061 545.325H722.951V552.18H669.774V545.325H677.461C679.395 545.325 680.638 545.049 681.193 544.494C681.745 543.942 682.025 542.831 682.025 541.168V454.344C682.025 442.717 681.469 435.272 680.362 432.014C679.263 428.756 676.498 427.128 672.065 427.128H665.838V420.493Z" fill="#807514"/>
<path d="M178.031 585.292C175.949 585.292 174.663 585.746 174.18 586.649C173.692 587.544 173.45 589.648 173.45 592.961V677.716C173.45 688.384 173.934 695.103 174.909 697.873C175.881 700.647 178.719 702.03 183.427 702.03H188.416C205.167 702.03 218.046 697.36 227.051 688.015C236.053 678.661 240.558 665.189 240.558 647.598C240.558 629.048 235.323 614.027 224.862 602.531C214.41 591.04 200.942 585.292 184.462 585.292H178.031ZM137.937 709.496V702.438H145.623C147.701 702.438 148.983 702.026 149.458 701.199C149.941 700.363 150.187 698.425 150.187 695.379V611.456C150.187 600.101 149.632 592.724 148.524 589.33C147.426 585.937 144.66 584.24 140.227 584.24H134V577.385C135.934 577.669 144.444 577.809 159.537 577.809C161.751 577.809 166.222 577.707 172.941 577.504C179.66 577.292 185.23 577.181 189.654 577.181C213.893 577.181 232.485 582.76 245.427 593.912C258.378 605.055 264.856 620.598 264.856 640.539C264.856 661.308 257.933 678.271 244.087 691.425C236.88 698.348 229.02 703.061 220.502 705.56C211.984 708.05 201.421 709.293 188.823 709.293C186.889 709.293 182.973 709.259 177.081 709.191C171.198 709.123 166.247 709.089 162.234 709.089C152.13 709.089 144.032 709.225 137.937 709.496Z" fill="#807514"/>
<path d="M324.042 603.973L303.697 653.214H341.502L324.042 603.973ZM396.749 702.437V709.292H344.827V702.437H353.752C356.387 702.437 357.706 701.818 357.706 700.571C357.706 699.735 357.494 698.836 357.078 697.873L344.827 661.104H300.575L291.022 686.233C288.668 692.604 287.493 696.409 287.493 697.652C287.493 699.599 288.078 700.885 289.258 701.504C290.433 702.128 292.541 702.437 295.587 702.437H305.767V709.292H264.23V702.437H270.661C273.431 702.437 275.505 700.774 276.888 697.449L327.995 576.146L341.281 573.228C341.832 573.092 342.74 573.024 343.996 573.024C345.794 573.024 346.694 573.787 346.694 575.315C346.694 576.006 345.964 577.011 344.505 578.335C343.054 579.65 342.333 581.135 342.333 582.797C342.333 583.489 342.609 584.8 343.164 586.734L381.579 694.344C382.687 697.525 383.896 699.667 385.211 700.774C386.534 701.886 388.303 702.437 390.521 702.437H396.749Z" fill="#807514"/>
<path d="M398.206 577.605H433.719L515.775 671.064V612.287C515.775 601.067 515.22 593.589 514.113 589.856C513.001 586.115 510.299 584.24 506.002 584.24H496.873V577.605H536.34V584.24H527.602C525.939 584.24 524.93 584.452 524.582 584.867C524.242 585.287 524.073 586.187 524.073 587.565V707.629C524.073 709.564 523.725 710.531 523.038 710.531C522.211 710.531 521.379 709.979 520.543 708.885L425.201 602.107V676.273C425.201 685.686 425.787 692.401 426.966 696.414C428.141 700.431 430.326 702.437 433.516 702.437H446.191V709.292H403.398V702.437H411.491C413.706 702.437 415.161 702.128 415.852 701.504C416.539 700.885 416.887 699.396 416.887 697.041V608.758C416.887 599.892 415.92 593.589 413.986 589.856C412.051 586.115 408.31 584.24 402.77 584.24H398.206V577.605Z" fill="#807514"/>
<path d="M549.614 577.605H657.223L662.823 595.048C663.239 596.159 663.451 596.991 663.451 597.542C663.451 599.341 662.619 600.24 660.956 600.24C659.845 600.24 658.394 599.065 656.596 596.711C654.797 594.361 653.134 592.698 651.607 591.722C644.82 587.574 632.637 585.355 615.059 585.071V675.441C615.059 686.937 615.572 694.31 616.603 697.567C617.642 700.817 620.378 702.437 624.815 702.437H636.234V709.292H572.045V702.437H587.214C589.293 702.437 590.574 702.026 591.049 701.199C591.533 700.363 591.779 698.424 591.779 695.379V585.071C573.78 585.355 561.457 587.642 554.806 591.926C553.287 592.902 551.667 594.531 549.936 596.813C548.205 599.099 546.784 600.24 545.677 600.24C544.15 600.24 543.387 599.341 543.387 597.542C543.387 596.571 543.531 595.74 543.811 595.048L549.614 577.605Z" fill="#807514"/>
<path d="M667.192 577.605H768.134L765.639 594.844C765.22 597.199 764.388 598.374 763.145 598.374C762.034 598.374 760.825 597.267 759.514 595.048C758.199 592.834 757.058 591.311 756.087 590.484C751.242 586.878 740.65 585.071 724.306 585.071H711.427C709.209 585.071 707.856 585.351 707.372 585.902C706.884 586.458 706.642 587.71 706.642 589.652V632.649H724.102C734.202 632.649 740.85 632.131 744.039 631.088C747.229 630.048 748.824 627.52 748.824 623.503V617.683H755.052V653.825H748.824V646.97C748.824 643.928 747.573 642.028 745.075 641.268C742.584 640.501 737.392 640.115 729.498 640.115H706.642V674.814C706.642 686.445 707.16 693.852 708.204 697.041C709.243 700.223 711.979 701.809 716.416 701.809H727.835C739.055 701.809 749.028 700.147 757.749 696.821C760.235 695.862 762.831 693.928 765.538 691.018C768.24 688.112 770.212 686.657 771.459 686.657C772.838 686.657 773.529 687.349 773.529 688.727C773.529 689.554 773.394 690.454 773.122 691.425L767.93 709.292H671.129V702.641H678.815C680.75 702.641 681.993 702.263 682.548 701.504C683.1 700.749 683.38 699.328 683.38 697.245V611.456C683.38 600.1 682.824 592.724 681.717 589.33C680.618 585.936 677.852 584.24 673.42 584.24H667.192V577.605Z" fill="#807514"/>
<path d="M351.145 812.099C351.281 811.433 351.493 810.894 351.79 810.487C352.842 810.317 354.237 810.215 355.981 810.181L358.475 810.131L360.223 809.876C360.359 809.821 360.562 809.719 360.834 809.571C361.092 809.019 361.296 808.391 361.444 807.687C361.852 805.685 363.01 798.588 364.923 786.393C365.712 781.336 366.212 777.527 366.416 774.956C367.23 770.536 367.867 765.98 368.333 761.297C368.444 760.245 368.503 759.414 368.503 758.803C368.503 757.73 368.011 757.034 367.027 756.716C366.416 756.512 363.871 756.292 359.391 756.054L359.425 754.578L362.615 754.527C363.26 754.527 363.786 754.544 364.193 754.578C366.34 754.748 369.61 754.849 374.001 754.883L376.054 754.917L391.511 754.527L395.007 754.493L398.587 754.527H401.556L403.474 754.578H404.169L404.916 754.527L408.496 754.714C408.428 755.087 408.382 755.359 408.36 755.528C408.267 756.003 408.212 756.474 408.191 756.937L406.664 762.909C406.63 763.058 406.511 763.435 406.307 764.046L404.865 763.91C404.806 762.578 404.649 761.327 404.39 760.16C404.152 758.591 403.783 757.645 403.287 757.327C402.337 756.682 400.632 756.36 398.18 756.36L382.162 756.631C378.904 756.657 376.55 756.814 375.104 757.106L374.917 757.887L373.916 766.574L372.304 778.757C372.97 778.85 374.264 778.923 376.189 778.978C376.8 779.003 377.25 779.029 377.547 779.063H377.937L384.741 778.706H387.066L389.102 778.842L390.765 778.808L392.954 778.842C393.531 778.842 394.345 778.715 395.397 778.452C396.64 775.864 397.348 774.303 397.518 773.769C397.696 773.226 398.065 772.445 398.621 771.427C399.062 771.372 399.384 771.342 399.588 771.342H400.063L399.893 773.819L397.789 789.057L396.262 789.362L396.144 788.581V787.665L395.702 782.728C395.439 781.858 395.134 781.319 394.786 781.116C394.32 780.857 392.996 780.725 390.816 780.725L386.268 780.844L384.707 780.81L380.991 780.895H375.714L372.966 781.031C372.499 781.031 372.134 781.06 371.863 781.116C371.43 783.47 370.751 788.153 369.827 795.165C369.555 797.112 369.318 798.55 369.114 799.475C368.91 800.391 368.749 801.269 368.639 802.105C368.49 803.509 368.257 805.184 367.943 807.127C367.795 808.035 367.723 808.866 367.723 809.622C368.07 809.791 368.333 809.906 368.503 809.961C371.532 810.427 373.835 810.686 375.409 810.741C375.723 810.741 376.206 810.758 376.851 810.792C376.906 811.11 376.936 811.344 376.936 811.488C376.936 811.692 376.889 811.984 376.8 812.37C376.223 812.336 375.77 812.319 375.443 812.319C375.214 812.319 374.705 812.345 373.916 812.404C373.36 812.438 372.881 812.455 372.474 812.455C371.863 812.455 370.611 812.307 368.724 812.014C367.909 812.014 367.086 811.989 366.263 811.946C365.436 811.899 364.859 811.878 364.533 811.878C360.774 811.878 357.941 811.967 356.032 812.15C354.717 812.26 353.8 812.319 353.283 812.319C352.579 812.319 351.866 812.243 351.145 812.099Z" fill="#807514"/>
<path d="M420.222 760.076C420.222 759.057 420.612 758.154 421.393 757.361C422.182 756.559 423.106 756.156 424.158 756.156C425.143 756.156 425.982 756.508 426.687 757.208C427.387 757.899 427.739 758.697 427.739 759.6C427.739 760.767 427.298 761.823 426.415 762.773C425.893 763.329 424.939 763.605 423.548 763.605C422.606 763.605 421.817 763.291 421.172 762.655C420.536 762.01 420.222 761.153 420.222 760.076ZM418.525 779.673C417.914 779.673 417.46 779.72 417.168 779.809C415.798 780.534 414.796 781.158 414.164 781.676C412.849 782.694 411.611 783.89 410.448 785.256L407.92 785.833C410.16 782.804 412.642 780.433 415.369 778.723C418.105 777.005 420.26 776.144 421.834 776.144C422.513 776.144 423.013 776.314 423.344 776.653C423.683 776.984 423.853 777.408 423.853 777.926C423.853 779.351 423.039 781.722 421.41 785.035C421.206 785.442 420.722 786.494 419.967 788.191C418.211 792.005 416.353 795.606 414.385 799C413.74 800.111 413.036 801.422 412.281 802.936C411.874 803.751 411.509 804.438 411.195 804.989C410.287 806.508 409.838 807.628 409.838 808.349C409.838 808.553 409.914 808.735 410.075 808.892C410.232 809.053 410.432 809.129 410.669 809.129C410.983 809.129 411.45 808.956 412.06 808.603C413.078 808.027 414.292 807.068 415.709 805.719C417.121 804.361 418.364 802.809 419.441 801.053H421.223C420.383 802.627 419.14 804.429 417.49 806.465C415.848 808.502 413.982 810.131 411.891 811.352C410.317 812.29 408.921 812.761 407.7 812.761C406.771 812.761 406.088 812.561 405.647 812.167C405.205 811.768 404.985 811.259 404.985 810.623C404.985 808.383 406.631 804.166 409.922 797.965L416.947 784.696C417.681 783.33 418.19 782.248 418.474 781.455C418.652 780.971 418.746 780.636 418.746 780.454C418.746 780.31 418.669 780.047 418.525 779.673Z" fill="#807514"/>
<path d="M436.465 779.623C435.503 780.327 434.599 781.141 433.751 782.066C433.522 782.337 432.198 784.085 429.78 787.309L427.999 787.394C428.72 785.824 430.073 783.89 432.054 781.591C434.031 779.296 435.744 777.722 437.195 776.874C438.133 776.322 439.185 776.004 440.351 775.924C441.072 776.127 441.573 776.407 441.844 776.755C442.124 777.094 442.268 777.514 442.268 778.011C442.268 778.511 442.209 779.007 442.099 779.504C441.768 781.099 441.123 783.385 440.164 786.359C439.202 789.324 438.349 791.665 437.602 793.383L435.329 798.745L435.159 799.526C435.566 798.839 436.389 797.282 437.636 794.86C442.374 785.867 445.798 780.31 447.902 778.18C449.437 776.679 451.244 775.924 453.314 775.924C454.468 775.924 455.558 776.39 456.589 777.315C457.336 778.04 457.709 779.003 457.709 780.199C457.709 781.536 457.289 782.685 456.454 783.644C455.864 784.314 455.032 784.645 453.959 784.645C453.051 784.645 452.419 784.437 452.059 784.017C451.694 783.602 451.469 782.541 451.38 780.844C451.007 780.098 450.587 779.724 450.125 779.724C449.658 779.724 449.162 779.97 448.631 780.454C447.24 781.71 444.61 785.722 440.741 792.484C436.873 799.25 434.446 803.95 433.462 806.584C432.487 809.223 431.698 811.03 431.087 812.014C430.769 812.51 430.175 812.761 429.305 812.761C428.512 812.761 427.948 812.616 427.608 812.336C427.277 812.065 427.116 811.709 427.116 811.267C427.116 810.691 427.26 810.025 427.557 809.265C428.813 806.211 430.819 800.578 433.581 792.365L436.635 783.033C436.839 782.185 436.983 781.65 437.076 781.421L437.331 780.759C437.331 780.479 437.042 780.098 436.465 779.623Z" fill="#807514"/>
<path d="M459.714 795.946C458.763 798.593 458.288 801.274 458.288 803.989C458.288 805.97 458.751 807.552 459.68 808.74C460.29 809.554 461.122 809.961 462.174 809.961C462.806 809.961 463.37 809.834 463.871 809.571C464.944 809.019 465.864 808.362 466.636 807.603C467.404 806.848 468.214 805.855 469.063 804.633C469.911 803.412 470.594 802.046 471.116 800.527H471.727C472.075 800.527 472.465 800.561 472.897 800.629C472.024 803.887 469.877 807.089 466.45 810.233C464.286 812.176 462.059 813.151 459.764 813.151C458.225 813.151 456.918 812.447 455.845 811.047C454.42 809.215 453.707 806.686 453.707 803.463C453.707 802.063 453.915 800.387 454.335 798.44C454.75 796.497 455.238 794.868 455.794 793.553C456.664 791.517 457.635 789.596 458.712 787.784L462.072 782.898C464.252 780.581 465.474 779.3 465.737 779.063C466.755 778.193 467.777 777.532 468.808 777.078C469.848 776.628 470.921 776.399 472.032 776.399C473.457 776.399 474.705 777.001 475.782 778.198C476.855 779.385 477.394 780.878 477.394 782.677C477.394 784.285 476.978 785.867 476.155 787.428C475.328 788.981 474.433 790.117 473.474 790.839L469.843 793.197C469.436 793.401 468.342 793.774 466.568 794.317C464.791 794.86 462.505 795.403 459.714 795.946ZM460.46 793.774C461.398 793.799 462.853 793.43 464.821 792.671C465.907 792.264 467.336 791.466 469.114 790.279C469.801 789.816 470.598 789.023 471.506 787.903C472.41 786.783 473.093 785.621 473.559 784.408C474.022 783.199 474.255 781.956 474.255 780.675C474.255 779.839 474.005 779.143 473.508 778.588C473.02 778.036 472.473 777.756 471.862 777.756C471.069 777.756 470.136 778.21 469.063 779.114C467.251 780.675 465.364 783.305 463.396 787.004C461.902 789.833 460.922 792.09 460.46 793.774Z" fill="#807514"/>
<path d="M491.011 781.455C490.952 781.23 490.875 781.073 490.774 780.98C490.672 780.891 490.545 780.844 490.4 780.844C488.882 780.844 486.523 783.232 483.325 788.005C483.007 788.039 482.773 788.056 482.629 788.056C482.459 788.056 482.171 788.039 481.764 788.005C482.375 786.783 483.367 785.247 484.75 783.389C486.129 781.523 487.592 779.975 489.145 778.74C490.706 777.497 492.186 776.568 493.59 775.958C494.053 775.754 494.477 775.652 494.863 775.652C494.999 775.652 495.211 775.669 495.508 775.703C496.025 776.225 496.288 776.763 496.288 777.315C496.288 777.667 496.254 778.019 496.186 778.367C496.119 778.719 495.966 779.258 495.728 779.979C494.854 782.482 494.218 784.238 493.811 785.256L491.317 791.721C490.74 793.205 490.171 794.775 489.62 796.438C489.845 796.145 490.048 795.869 490.231 795.606C492.933 791.648 495.847 787.86 498.969 784.238C502.1 780.619 504.687 778.193 506.723 776.959C508.183 776.068 509.566 775.618 510.881 775.618C511.865 775.618 512.632 775.89 513.188 776.433C513.74 776.967 514.02 777.654 514.02 778.503C514.02 779.024 513.956 779.533 513.833 780.03C513.629 781.128 513.175 782.668 512.475 784.645C511.784 786.626 509.956 790.919 506.995 797.524L502.617 807.602L502.448 808.179C502.448 808.349 502.549 808.612 502.753 808.96C504.382 808.612 506.825 806.02 510.083 801.189L511.882 801.24C510.974 802.868 509.489 804.964 507.419 807.518C505.824 809.465 504.11 810.979 502.278 812.065C501.26 812.676 500.165 812.981 499.003 812.981C498.299 812.981 497.773 812.833 497.425 812.54C497.073 812.243 496.899 811.921 496.899 811.573C496.899 810.037 497.646 807.649 499.139 804.412L505.468 790.584L507.911 784.781C508.463 783.504 508.798 782.617 508.912 782.117C509.023 781.621 509.082 781.128 509.082 780.641C509.082 780.259 508.98 779.958 508.777 779.741C508.573 779.529 508.31 779.419 507.996 779.419C507.529 779.419 506.995 779.606 506.384 779.979C504.221 781.26 501.845 783.453 499.258 786.562C495.533 791.055 493.064 794.274 491.843 796.217C488.788 801.049 486.125 805.982 483.851 811.013C483.499 811.827 483.079 812.421 482.595 812.795C481.984 812.884 481.514 812.93 481.187 812.93C480.814 812.93 480.237 812.854 479.456 812.71C479.329 812.481 479.27 812.294 479.27 812.15C479.27 811.912 479.414 811.386 479.711 810.572C480.355 808.684 481.925 804.697 484.428 798.61L485.429 796.251L491.011 781.455Z" fill="#807514"/>
<path d="M568.659 795.946C567.708 798.593 567.233 801.274 567.233 803.989C567.233 805.97 567.696 807.552 568.625 808.74C569.236 809.554 570.067 809.961 571.119 809.961C571.751 809.961 572.315 809.834 572.816 809.571C573.889 809.019 574.81 808.362 575.582 807.603C576.349 806.848 577.16 805.855 578.008 804.633C578.856 803.412 579.539 802.046 580.061 800.527H580.672C581.02 800.527 581.41 800.561 581.843 800.629C580.969 803.887 578.822 807.089 575.395 810.233C573.232 812.176 571.004 813.151 568.71 813.151C567.17 813.151 565.863 812.447 564.79 811.047C563.365 809.215 562.652 806.686 562.652 803.463C562.652 802.063 562.86 800.387 563.28 798.44C563.696 796.497 564.183 794.868 564.739 793.553C565.609 791.517 566.58 789.596 567.658 787.784L571.017 782.898C573.198 780.581 574.419 779.3 574.682 779.063C575.7 778.193 576.723 777.532 577.753 777.078C578.793 776.628 579.866 776.399 580.977 776.399C582.403 776.399 583.65 777.001 584.727 778.198C585.8 779.385 586.339 780.878 586.339 782.677C586.339 784.285 585.923 785.867 585.1 787.428C584.273 788.981 583.378 790.117 582.42 790.839L578.788 793.197C578.381 793.401 577.287 793.774 575.514 794.317C573.736 794.86 571.45 795.403 568.659 795.946ZM569.405 793.774C570.343 793.799 571.798 793.43 573.766 792.671C574.852 792.264 576.281 791.466 578.059 790.279C578.746 789.816 579.544 789.023 580.451 787.903C581.355 786.783 582.038 785.621 582.504 784.408C582.967 783.199 583.2 781.956 583.2 780.675C583.2 779.839 582.95 779.143 582.454 778.588C581.966 778.036 581.418 777.756 580.808 777.756C580.014 777.756 579.081 778.21 578.008 779.114C576.197 780.675 574.309 783.305 572.341 787.004C570.848 789.833 569.868 792.09 569.405 793.774Z" fill="#807514"/>
<mask id="mask0_2004_498" style="mask-type:luminance" maskUnits="userSpaceOnUse" x="771" y="566" width="47" height="47">
<path d="M817.887 566.217H771.191V612.913H817.887V566.217Z" fill="white"/>
</mask>
<g mask="url(#mask0_2004_498)">
<mask id="mask1_2004_498" style="mask-type:luminance" maskUnits="userSpaceOnUse" x="781" y="577" width="26" height="25">
<path d="M781.584 577.356H806.607V601.828H781.584V577.356Z" fill="white"/>
</mask>
<g mask="url(#mask1_2004_498)">
<mask id="mask2_2004_498" style="mask-type:luminance" maskUnits="userSpaceOnUse" x="781" y="577" width="26" height="25">
<path d="M794.217 577.356C787.243 577.356 781.584 582.829 781.584 589.577C781.584 596.326 787.243 601.794 794.217 601.794C801.19 601.794 806.849 596.326 806.849 589.577C806.849 582.829 801.19 577.356 794.217 577.356Z" fill="white"/>
</mask>
<g mask="url(#mask2_2004_498)">
<path d="M794.216 577.356C787.243 577.356 781.584 582.829 781.584 589.577C781.584 596.322 787.243 601.794 794.216 601.794C801.19 601.794 806.849 596.322 806.849 589.577C806.849 582.829 801.19 577.356 794.216 577.356Z" stroke="#7D721C" stroke-width="5.99703"/>
</g>
</g>
<path d="M789.256 593.792C789.256 593.767 789.26 593.733 789.273 593.695C789.294 593.623 789.336 593.572 789.404 593.538C789.447 593.517 789.489 593.508 789.54 593.508C789.557 593.508 789.595 593.504 789.646 593.495C789.71 593.487 789.778 593.474 789.845 593.466C789.909 593.457 789.968 593.444 790.024 593.436L790.151 593.411C790.371 593.36 790.524 593.283 790.6 593.181C790.681 593.075 790.719 592.944 790.719 592.779V585.308C790.719 585.109 790.681 584.961 790.609 584.859C790.524 584.744 790.431 584.659 790.329 584.604C790.219 584.545 790.113 584.511 790.015 584.498C789.901 584.481 789.824 584.473 789.79 584.473H789.51C789.468 584.473 789.425 584.464 789.387 584.447C789.332 584.422 789.29 584.379 789.26 584.329C789.239 584.282 789.226 584.235 789.226 584.189V583.866C789.226 583.828 789.235 583.786 789.252 583.747C789.285 583.658 789.362 583.603 789.472 583.582H789.544C789.557 583.582 789.591 583.578 789.642 583.578C789.697 583.573 789.778 583.573 789.879 583.569L790.316 583.557C790.583 583.552 790.872 583.548 791.177 583.535L792.106 583.506L793.04 583.48C793.345 583.476 793.638 583.472 793.909 583.472H794.652C795.063 583.472 795.479 583.54 795.907 583.68C796.331 583.82 796.722 584.027 797.065 584.303C797.417 584.579 797.701 584.922 797.926 585.33C798.151 585.745 798.266 586.225 798.266 586.763C798.266 587.111 798.219 587.425 798.121 587.701C798.024 587.977 797.892 588.223 797.723 588.435C797.553 588.647 797.354 588.833 797.12 588.99C796.896 589.147 796.654 589.283 796.391 589.402L796.297 589.194L796.488 589.075L798.715 592.605C798.898 592.893 799.11 593.156 799.352 593.389C799.581 593.614 799.844 593.767 800.149 593.856L800.085 594.072L800.141 593.852C800.251 593.881 800.327 593.937 800.361 594.021C800.382 594.068 800.391 594.119 800.391 594.174C800.391 594.331 800.336 594.446 800.225 594.513C800.149 594.56 800.052 594.586 799.924 594.586C799.708 594.586 799.466 594.569 799.199 594.543C798.927 594.513 798.652 594.467 798.38 594.403C798.104 594.34 797.841 594.259 797.591 594.157C797.328 594.047 797.108 593.911 796.925 593.746C796.76 593.601 796.59 593.415 796.42 593.194C796.255 592.978 796.09 592.749 795.924 592.503C795.759 592.257 795.593 592.002 795.432 591.735L794.97 590.967C794.821 590.717 794.677 590.488 794.541 590.272C794.405 590.064 794.287 589.881 794.176 589.737L794.359 589.601L794.342 589.826L793.192 589.746L793.209 589.521V589.746H793.15C793.167 589.741 793.184 589.733 793.201 589.724C793.222 589.712 793.239 589.69 793.252 589.665C793.26 589.648 793.264 589.631 793.269 589.614C793.269 589.614 793.264 589.618 793.264 589.623V592.753C793.264 592.863 793.281 592.952 793.307 593.025C793.328 593.088 793.362 593.139 793.413 593.186C793.472 593.237 793.553 593.279 793.655 593.313C793.769 593.351 793.913 593.385 794.083 593.406H794.087L794.223 593.428C794.278 593.44 794.342 593.449 794.41 593.461C794.473 593.474 794.537 593.487 794.596 593.495C794.647 593.504 794.694 593.508 794.724 593.508C794.77 593.508 794.813 593.517 794.847 593.529C794.919 593.559 794.965 593.61 794.991 593.682C795.004 593.72 795.008 593.758 795.008 593.792V594.115C795.008 594.161 794.999 594.208 794.974 594.255C794.948 594.306 794.906 594.348 794.851 594.373C794.813 594.39 794.77 594.399 794.724 594.399H789.54C789.481 594.399 789.425 594.382 789.379 594.34C789.349 594.314 789.324 594.28 789.307 594.242C789.285 594.204 789.273 594.153 789.268 594.094C789.26 594.017 789.256 593.945 789.256 593.881V593.792ZM789.71 593.792V593.881C789.71 593.932 789.71 593.987 789.718 594.047C789.718 594.055 789.718 594.064 789.718 594.068C789.718 594.064 789.718 594.06 789.714 594.055C789.705 594.03 789.688 594.013 789.671 593.996C789.633 593.962 789.591 593.949 789.54 593.949H794.724C794.702 593.949 794.681 593.954 794.66 593.962C794.622 593.983 794.592 594.013 794.571 594.051C794.562 594.068 794.558 594.089 794.558 594.115V593.792C794.558 593.805 794.558 593.818 794.562 593.826C794.579 593.881 794.618 593.924 794.668 593.945C794.69 593.954 794.707 593.958 794.724 593.958C794.668 593.958 794.605 593.954 794.529 593.941C794.461 593.932 794.397 593.92 794.325 593.907C794.261 593.894 794.202 593.886 794.147 593.873L794.015 593.852L794.053 593.631L794.028 593.856C793.824 593.826 793.65 593.788 793.51 593.741C793.349 593.686 793.218 593.614 793.116 593.525C793.006 593.428 792.925 593.309 792.878 593.177C792.836 593.054 792.815 592.914 792.815 592.753V589.623C792.815 589.559 792.823 589.504 792.844 589.461C792.87 589.419 792.904 589.376 792.951 589.347C793.006 589.313 793.069 589.292 793.15 589.292H793.218L794.478 589.381L794.537 589.466C794.656 589.623 794.783 589.809 794.923 590.03C795.059 590.246 795.207 590.484 795.356 590.734L795.818 591.502C795.975 591.76 796.136 592.011 796.297 592.248C796.459 592.49 796.62 592.711 796.777 592.918C796.929 593.118 797.082 593.283 797.231 593.411C797.371 593.542 797.549 593.648 797.761 593.737C797.99 593.831 798.227 593.907 798.482 593.966C798.737 594.026 798.991 594.068 799.246 594.094C799.5 594.119 799.725 594.132 799.924 594.132C799.95 594.132 799.971 594.132 799.988 594.127C799.992 594.127 799.992 594.127 799.996 594.123C799.992 594.127 799.992 594.127 799.988 594.132C799.967 594.144 799.95 594.161 799.941 594.183C799.941 594.187 799.937 594.187 799.937 594.191C799.941 594.187 799.941 594.183 799.941 594.174C799.941 594.183 799.941 594.191 799.945 594.2C799.962 594.238 799.988 594.267 800.018 594.284C800.022 594.289 800.03 594.289 800.03 594.293C800.035 594.293 800.035 594.293 800.035 594.293C800.03 594.293 800.03 594.289 800.03 594.289H800.022C799.649 594.178 799.318 593.987 799.038 593.716C798.77 593.453 798.537 593.165 798.334 592.846L795.967 589.097L796.204 588.99C796.442 588.884 796.662 588.761 796.866 588.621C797.061 588.486 797.226 588.329 797.366 588.155C797.506 587.981 797.617 587.781 797.693 587.552C797.774 587.323 797.816 587.06 797.816 586.763C797.816 586.301 797.718 585.894 797.532 585.546C797.337 585.19 797.086 584.893 796.785 584.655C796.48 584.418 796.14 584.235 795.763 584.108C795.385 583.985 795.012 583.921 794.652 583.921H793.909C793.642 583.921 793.353 583.926 793.052 583.934L792.123 583.96L791.19 583.989C790.885 583.998 790.596 584.006 790.325 584.01L789.892 584.023C789.79 584.023 789.714 584.027 789.663 584.027C789.604 584.032 789.565 584.032 789.544 584.032H789.51V583.807L789.548 584.027C789.557 584.027 789.565 584.023 789.578 584.019C789.621 583.998 789.65 583.964 789.671 583.917C789.676 583.9 789.68 583.883 789.68 583.866V584.189C789.68 584.163 789.676 584.142 789.667 584.125C789.646 584.083 789.616 584.057 789.574 584.036C789.553 584.027 789.531 584.023 789.51 584.023H789.79C789.845 584.023 789.939 584.032 790.074 584.049C790.227 584.07 790.38 584.121 790.541 584.206C790.707 584.295 790.851 584.422 790.974 584.592C791.105 584.774 791.169 585.012 791.169 585.308V592.779C791.169 593.042 791.101 593.271 790.961 593.453C790.817 593.644 790.575 593.775 790.24 593.852L790.117 593.877C790.053 593.89 789.985 593.903 789.909 593.911C789.841 593.924 789.778 593.932 789.714 593.941C789.638 593.954 789.582 593.958 789.54 593.958C789.561 593.958 789.582 593.954 789.608 593.941C789.659 593.915 789.688 593.877 789.705 593.822C789.705 593.826 789.705 593.826 789.705 593.831C789.705 593.818 789.71 593.805 789.71 593.792ZM793.281 588.757C793.281 588.766 793.281 588.778 793.286 588.783C793.273 588.757 793.256 588.74 793.23 588.727C793.226 588.723 793.222 588.723 793.214 588.723C793.264 588.727 793.332 588.736 793.426 588.749C793.502 588.757 793.616 588.766 793.761 588.766C794.159 588.766 794.482 588.706 794.732 588.587C794.974 588.473 795.169 588.316 795.305 588.125C795.449 587.93 795.547 587.701 795.602 587.442C795.661 587.171 795.691 586.882 795.691 586.585C795.691 586.284 795.644 585.996 795.547 585.728C795.453 585.457 795.326 585.228 795.161 585.033C794.995 584.842 794.8 584.689 794.571 584.575C794.342 584.464 794.092 584.409 793.82 584.409C793.756 584.409 793.706 584.409 793.672 584.409L793.557 584.418C793.523 584.422 793.481 584.422 793.43 584.426L793.23 584.435H793.226C793.214 584.435 793.197 584.439 793.167 584.447C793.197 584.439 793.222 584.422 793.243 584.392C793.26 584.371 793.264 584.35 793.264 584.329V588.562H793.04L793.264 588.549L793.281 588.77L793.057 588.783L793.281 588.757ZM792.832 588.804L792.815 588.57V584.329C792.815 584.252 792.836 584.189 792.874 584.133C792.917 584.07 792.976 584.032 793.052 584.01C793.12 583.993 793.175 583.985 793.226 583.985V584.21L793.214 583.985L793.409 583.972C793.451 583.972 793.493 583.968 793.532 583.968L793.646 583.96C793.689 583.955 793.748 583.955 793.82 583.955C794.164 583.955 794.482 584.027 794.77 584.172C795.055 584.312 795.301 584.502 795.504 584.74C795.704 584.978 795.86 585.258 795.975 585.576C796.085 585.894 796.14 586.233 796.14 586.585C796.14 586.916 796.111 587.234 796.043 587.535C795.975 587.858 795.852 588.142 795.674 588.392C795.487 588.647 795.237 588.846 794.923 588.995C794.613 589.143 794.227 589.215 793.761 589.215C793.595 589.215 793.46 589.211 793.362 589.194C793.277 589.186 793.214 589.177 793.175 589.173C793.04 589.16 792.946 589.101 792.891 588.999C792.857 588.94 792.84 588.88 792.832 588.812V588.804Z" fill="#7D721C"/>
<path d="M789.48 593.784C789.48 593.784 789.48 593.78 789.48 593.767C789.489 593.746 789.514 593.733 789.548 593.733C789.57 593.733 789.608 593.729 789.667 593.716C789.735 593.708 789.803 593.699 789.871 593.699C789.947 593.691 790.015 593.678 790.074 593.665C790.129 593.644 790.168 593.631 790.193 593.631C790.473 593.563 790.668 593.462 790.77 593.326C790.88 593.182 790.94 592.999 790.94 592.783V585.3C790.94 585.054 790.889 584.859 790.787 584.723C790.685 584.579 790.566 584.469 790.431 584.401C790.295 584.333 790.163 584.295 790.04 584.282C789.913 584.261 789.828 584.248 789.786 584.248H789.514C789.489 584.248 789.472 584.244 789.464 584.231C789.451 584.21 789.447 584.193 789.447 584.18V583.858C789.447 583.849 789.447 583.837 789.447 583.824C789.455 583.815 789.48 583.807 789.514 583.807C789.514 583.807 789.519 583.807 789.531 583.807C789.553 583.807 789.591 583.807 789.65 583.807C789.705 583.799 789.786 583.79 789.888 583.79C789.99 583.79 790.134 583.786 790.329 583.773C790.588 583.773 790.872 583.769 791.177 583.756C791.491 583.748 791.805 583.735 792.11 583.722C792.424 583.714 792.738 583.705 793.044 583.705C793.349 583.697 793.638 583.688 793.909 583.688H794.656C795.037 583.688 795.428 583.756 795.826 583.892C796.234 584.028 796.598 584.227 796.929 584.486C797.256 584.736 797.523 585.054 797.727 585.436C797.939 585.822 798.049 586.263 798.049 586.759C798.049 587.09 798.003 587.379 797.913 587.625C797.82 587.875 797.697 588.096 797.54 588.287C797.392 588.482 797.209 588.651 796.997 588.796C796.781 588.944 796.548 589.076 796.302 589.186L798.524 592.732C798.715 593.029 798.936 593.3 799.186 593.547C799.445 593.797 799.746 593.971 800.085 594.073C800.128 594.085 800.153 594.102 800.153 594.123C800.162 594.136 800.17 594.153 800.17 594.174C800.17 594.251 800.145 594.302 800.102 594.327C800.068 594.348 800.009 594.361 799.933 594.361C799.729 594.361 799.491 594.344 799.22 594.31C798.957 594.285 798.694 594.242 798.422 594.174C798.159 594.119 797.913 594.047 797.676 593.954C797.438 593.852 797.239 593.729 797.082 593.58C796.921 593.445 796.76 593.271 796.59 593.054C796.429 592.842 796.268 592.613 796.098 592.376C795.937 592.138 795.78 591.892 795.623 591.629C795.462 591.358 795.309 591.099 795.165 590.849C795.016 590.603 794.876 590.369 794.74 590.153C794.605 589.941 794.477 589.754 794.367 589.593L793.213 589.525C793.201 589.525 793.179 589.525 793.146 589.525C793.112 589.525 793.086 589.525 793.078 589.525C793.065 589.538 793.052 589.551 793.044 589.559C793.044 589.572 793.044 589.593 793.044 589.627V592.749C793.044 592.885 793.061 593.004 793.095 593.105C793.129 593.199 793.184 593.284 793.264 593.36C793.341 593.428 793.442 593.487 793.57 593.53C793.705 593.576 793.867 593.61 794.062 593.631C794.083 593.631 794.121 593.64 794.181 593.648C794.236 593.661 794.299 593.674 794.367 593.682C794.435 593.695 794.494 593.708 794.554 593.716C794.622 593.729 794.677 593.733 794.724 593.733C794.757 593.733 794.774 593.746 794.774 593.767C794.783 593.78 794.791 593.784 794.791 593.784V594.123C794.791 594.123 794.783 594.136 794.774 594.157C794.762 594.17 794.745 594.174 794.724 594.174H789.548C789.514 594.174 789.489 594.14 789.48 594.073C789.48 594.005 789.48 593.945 789.48 593.886V593.784ZM793.061 588.779C793.061 588.825 793.065 588.863 793.078 588.897C793.099 588.923 793.137 588.94 793.196 588.948C793.239 588.948 793.307 588.957 793.4 588.965C793.489 588.978 793.608 588.982 793.756 588.982C794.198 588.982 794.554 588.923 794.825 588.796C795.105 588.66 795.326 588.482 795.487 588.253C795.657 588.028 795.767 587.773 795.826 587.489C795.882 587.196 795.911 586.895 795.911 586.59C795.911 586.25 795.86 585.936 795.759 585.64C795.657 585.347 795.513 585.092 795.334 584.876C795.152 584.664 794.931 584.494 794.673 584.367C794.41 584.244 794.13 584.18 793.824 584.18C793.756 584.18 793.697 584.18 793.655 584.18C793.621 584.18 793.578 584.189 793.536 584.197C793.502 584.197 793.459 584.197 793.417 584.197C793.37 584.197 793.307 584.197 793.23 584.197C793.196 584.197 793.154 584.21 793.112 584.231C793.065 584.244 793.044 584.274 793.044 584.316V588.558L793.061 588.779Z" fill="#807514"/>
</g>
<path d="M552.999 785.975L548.282 786.162C545.372 786.162 542.072 784.906 538.373 782.395C536.358 781.029 534.525 780.342 532.875 780.342C531.246 780.342 529.889 780.868 528.803 781.92C527.725 782.972 527.191 784.24 527.191 785.721C527.191 786.535 527.437 787.426 527.938 788.385L528.514 788.419C528.773 788.194 528.96 787.905 529.074 787.553C529.333 786.705 529.702 786.094 530.177 785.721C530.661 785.339 531.229 785.144 531.874 785.144C532.561 785.144 533.155 785.432 533.656 786.009C534.152 786.578 534.457 787.545 534.572 788.911C534.275 789.861 533.749 790.608 532.994 791.151C532.247 791.693 531.373 791.965 530.381 791.965C529.1 791.965 527.988 791.435 527.038 790.37C526.096 789.31 525.63 787.905 525.63 786.162C525.63 783.71 526.737 781.462 528.956 779.426C531.183 777.39 533.783 776.372 536.761 776.372C539.463 776.372 542.335 777.538 545.38 779.867C548.422 782.2 550.267 783.524 550.912 783.837C551.565 784.156 552.1 784.313 552.507 784.313C553.037 784.313 553.546 784.1 554.034 783.668L554.39 782.887C554.738 780.707 555.12 779.383 555.527 778.917C556.079 778.272 556.766 777.95 557.58 777.95C558.301 777.95 558.942 778.204 559.498 778.713C560.049 779.222 560.329 779.782 560.329 780.393C560.329 781.445 560.049 782.361 559.498 783.142C558.738 784.253 557.165 785.78 554.781 787.723C554.11 788.313 552.88 789.505 551.082 791.303C549.97 792.415 548.791 793.534 547.535 794.663L543.005 798.464C540.231 801.204 537.244 803.893 534.046 806.54C534.394 806.744 534.661 806.888 534.843 806.964C537.342 808.28 538.721 809.035 538.984 809.238C539.594 809.794 540.328 810.829 541.189 812.343C542.046 813.858 542.912 816.114 543.785 819.113L545.974 826.528C546.233 827.228 546.67 828.2 547.281 829.447C547.688 829.943 548.066 830.452 548.418 830.974C549.694 832.454 551.463 833.197 553.729 833.197C555.357 833.197 556.477 832.993 557.088 832.586C557.529 832.323 557.75 831.962 557.75 831.5C557.75 831.271 557.691 830.965 557.58 830.584C557.377 830.414 556.876 830.193 556.087 829.922C555.307 829.659 554.823 829.417 554.645 829.192C554.305 828.692 554.136 828.183 554.136 827.665C554.136 826.995 554.424 826.397 555.001 825.867C555.578 825.345 556.291 825.086 557.139 825.086C557.398 825.086 557.703 825.158 558.055 825.307C558.7 825.51 559.252 825.951 559.718 826.63C560.181 827.317 560.414 828.2 560.414 829.277C560.414 830.94 559.811 832.28 558.615 833.298C557.428 834.317 555.536 834.826 552.948 834.826C550.852 834.826 549.325 834.63 548.367 834.249C546.827 833.612 545.372 832.573 544.006 831.127C542.636 829.689 541.486 827.996 540.562 826.053C540.176 825.26 539.497 823.139 538.525 819.69C537.55 816.237 536.905 814.108 536.591 813.293C535.764 811.406 534.886 810.044 533.961 809.204C533.439 808.742 532.845 808.509 532.179 808.509C531.569 808.509 530.691 809.085 529.549 810.239C527.861 811.995 526.309 812.869 524.883 812.869C524.179 812.869 523.551 812.589 523 812.038C522.457 811.486 522.185 810.846 522.185 810.121C522.185 809.183 522.703 808.296 523.746 807.457C524.798 806.608 526.385 806.184 528.514 806.184C529.736 806.184 530.487 806.129 530.771 806.014C531.653 805.633 533.287 804.381 535.675 802.264L548.587 790.608C549.843 789.556 551.311 788.011 552.999 785.975Z" fill="#807514"/>
<path d="M492.115 255.772C492.081 262.134 492.016 276.487 491.947 292.843C491.906 302.291 491.869 309.643 491.824 315.322C491.835 310.829 491.838 305.181 491.845 298.073C491.855 279.087 491.923 261.706 491.995 259.445C492.033 258.244 492.077 256.916 492.115 255.772ZM486.989 339.162C486.149 339.233 485.561 339.359 485.417 339.509C485.124 339.816 484.751 339.801 483.931 339.444C483.22 339.137 481.689 339.005 479.557 339.062C477.169 339.126 476.01 339.162 474.855 339.151C473.666 339.137 472.477 339.076 469.952 338.955C467.417 338.833 461.495 338.748 456.796 338.769C454.138 338.783 451.408 338.78 449.299 338.762C451.22 338.773 453.625 338.773 455.942 338.755C464.912 338.687 479.564 338.908 486.989 339.162ZM473.786 290.711C474.507 293.393 474.551 294.229 474.558 305.167C474.562 312.036 474.544 315.333 474.982 317.18C473.755 314.483 473.618 313.693 474.083 312.786C474.462 312.047 474.562 309.911 474.551 302.702C474.538 294.372 474.469 293.304 473.776 290.711C472.669 286.564 470.218 282.395 467.164 279.109C470.212 282.388 472.662 286.553 473.786 290.711ZM440.736 321.598C440.466 322.052 438.847 322.052 438.174 321.598C437.89 321.409 436.807 321.248 435.761 321.248C434.828 321.245 434.189 321.323 433.745 321.052C433.649 320.995 433.564 320.92 433.485 320.827C434.808 321.066 439.192 321.252 443.029 321.284C441.703 321.341 440.822 321.455 440.736 321.598ZM489.279 333.833C488.452 333.85 487.246 333.829 485.462 333.79C484.577 333.772 483.726 333.743 482.961 333.708C483.996 333.654 485.011 333.522 485.54 333.322C486.477 332.968 486.976 333.011 488.588 333.586L489.279 333.833ZM459.079 250.554C455.064 250.55 450.577 250.55 445.578 250.55C416.926 250.557 399.886 250.689 399.496 250.907C400.087 250.579 432.805 250.468 459.079 250.554ZM491.671 349.871C491.753 349.049 491.797 347.428 491.773 345.674C491.742 343.298 491.797 341.209 491.9 341.03C491.906 341.016 491.917 340.998 491.923 340.977C491.958 341.923 491.941 343.47 491.889 346.067C491.859 347.639 491.77 349.099 491.671 349.871ZM432.597 300.559C432.6 306.853 432.737 315.279 432.925 318.916C432.7 316.965 432.699 313.397 432.628 306.885C432.604 304.627 432.594 302.473 432.597 300.559ZM479.308 321.102C478.696 320.887 477.948 320.47 477.258 319.973C477.48 320.105 477.719 320.241 477.979 320.391C478.546 320.72 478.976 320.952 479.308 321.102ZM452.539 320.78C453.311 320.659 454.439 320.184 455.474 319.573C454.285 320.291 452.986 320.855 452.539 320.78ZM448.848 321.127C448.879 321.123 448.91 321.12 448.937 321.112C449.467 321.034 450.072 320.962 450.629 320.909C450.608 320.912 450.588 320.92 450.567 320.923C450.266 321.002 449.641 321.07 448.848 321.127ZM491.855 340.101C491.838 340.037 491.814 339.969 491.79 339.905C491.715 339.694 491.643 339.537 491.513 339.419C491.568 339.43 491.599 339.441 491.609 339.451C491.722 339.569 491.8 339.741 491.855 340.101ZM479.472 333.286C479.034 333.136 478.067 332.957 477.053 332.843C476.837 332.822 476.639 332.797 476.458 332.775C476.666 332.8 476.892 332.825 477.145 332.85C478.143 332.957 479.052 333.132 479.472 333.286ZM491.411 332.95C491.387 333.079 491.363 333.157 491.336 333.2C491.295 333.265 491.257 333.322 491.213 333.375C491.288 333.272 491.353 333.15 491.411 332.95ZM491.602 250.975C491.606 250.979 491.609 250.982 491.616 250.986C491.589 250.972 491.551 250.961 491.503 250.947C491.558 250.957 491.589 250.965 491.602 250.975ZM489.388 351.086C489.528 351.232 489.989 351.186 490.454 351.046C489.989 351.189 489.528 351.232 489.388 351.086Z" fill="#695F19"/>
<path d="M489.388 351.086C489.282 350.975 469.033 350.882 444.389 350.886C400.494 350.886 399.575 350.871 399.23 350.196C398.994 349.732 398.878 333.45 398.878 300.38C398.878 253.34 398.905 251.24 399.496 250.907C399.886 250.69 416.926 250.557 445.578 250.55C482.325 250.543 491.158 250.629 491.647 251.004C492.115 251.361 492.241 251.908 492.19 253.401C492.156 254.465 492.067 257.187 491.995 259.445C491.923 261.706 491.855 279.087 491.845 298.073C491.821 331.457 491.8 332.622 491.172 333.433L490.519 334.272L488.588 333.586C486.976 333.011 486.477 332.968 485.54 333.322C484.235 333.815 479.988 333.89 479.711 333.422C479.608 333.247 478.453 332.99 477.145 332.85C474.924 332.618 474.64 332.486 472.836 330.839C471.777 329.868 470.423 328.317 469.832 327.389C468.448 325.224 467.447 325.049 465.107 326.571C464.174 327.178 463.343 327.671 463.258 327.671C463.173 327.671 462.475 328.085 461.707 328.592C459.363 330.143 454.671 331.407 449.279 331.943C444.399 332.432 419.479 332.561 419.038 332.1C418.461 331.496 418.536 272.758 419.113 272.033C419.489 271.554 421.539 271.515 435.949 271.7C453.041 271.918 456.243 272.179 459.701 273.633C465.855 276.219 471.852 283.495 473.776 290.711C474.469 293.304 474.538 294.372 474.551 302.702C474.561 309.911 474.462 312.047 474.083 312.786C473.574 313.779 473.786 314.629 475.361 317.998C476.103 319.584 479.783 321.834 480.463 321.12C480.787 320.78 480.921 318.476 480.979 312.111C481.095 299.516 480.873 265.439 480.671 264.71C480.575 264.363 480.015 263.82 479.427 263.502C478.494 262.999 477.486 262.96 471.507 263.192C467.738 263.342 452.781 263.442 438.266 263.42L411.876 263.377L411.305 264.292C410.776 265.131 410.735 268.064 410.776 300.909C410.807 325.87 410.93 336.83 411.189 337.337C411.394 337.737 411.968 338.226 412.467 338.423C413.185 338.708 425.551 338.869 432.877 338.691C433.441 338.676 435.519 338.669 437.49 338.669C439.462 338.673 441.618 338.658 442.274 338.641C442.93 338.623 444.546 338.655 445.862 338.708C447.177 338.762 452.098 338.791 456.796 338.769C461.495 338.748 467.416 338.833 469.952 338.955C474.931 339.198 474.715 339.194 479.557 339.062C481.689 339.005 483.22 339.137 483.931 339.444C484.751 339.802 485.124 339.816 485.417 339.509C485.646 339.269 486.972 339.101 488.653 339.101C491.291 339.101 491.524 339.159 491.79 339.905C491.951 340.348 491.999 340.855 491.899 341.03C491.797 341.209 491.742 343.299 491.773 345.674C491.807 348.053 491.715 350.185 491.568 350.414C491.261 350.896 489.675 351.382 489.388 351.086ZM440.736 321.598C440.859 321.388 442.691 321.241 445.114 321.245C447.406 321.248 449.86 321.102 450.567 320.923C451.278 320.745 452.149 320.677 452.505 320.773C453.116 320.941 455.771 319.584 457.053 318.448C457.435 318.108 457.651 317.408 457.651 316.508C457.651 315.369 457.446 314.926 456.564 314.154C454.466 312.318 450.253 308.2 444.84 302.691C438.392 296.126 434.247 292.307 433.571 292.307C433.301 292.307 432.949 292.558 432.785 292.865C432.621 293.172 432.549 299.48 432.628 306.885C432.792 322.191 432.583 321.238 435.761 321.248C436.807 321.248 437.89 321.409 438.174 321.598C438.847 322.052 440.466 322.052 440.736 321.598ZM460.91 300.838C461.037 300.423 461.013 299.016 460.856 297.712C460.699 296.412 460.558 295.022 460.541 294.629C460.504 293.84 460.394 293.511 459.072 290.236C457.862 287.242 454.835 284.185 452.173 283.27C447.622 281.706 441.075 281.081 440.675 282.17C440.453 282.767 444.926 287.567 449.026 291.139C450.987 292.843 452.826 294.844 454.818 297.437C456.369 299.459 458.973 301.595 459.885 301.595C460.394 301.595 460.764 301.323 460.91 300.838Z" fill="#7D7117"/>
</svg>